<svg xmlns="http://www.w3.org/2000/svg" viewBox="0 0 800 500"><defs><linearGradient id="g" x1="0" y1="0" x2="0" y2="1"><stop offset="0" stop-color="#E8EEF2"/><stop offset="1" stop-color="#C9D3D9"/></linearGradient></defs><rect width="800" height="500" fill="url(#g)"/><rect y="390" width="800" height="110" fill="#8E9AA1"/><ellipse cx="415" cy="392" rx="320" ry="14" fill="#000" opacity=".18"/><path d="M120 335 L150 305 Q170 295 235 290 L300 238 Q320 224 350 224 L500 224 Q530 224 550 242 L610 290 Q690 294 700 322 L705 345 L120 345 Z" fill="#2F6FED"/><path d="M318 246 L352 238 L430 238 L430 290 L270 290 Z M445 238 L500 238 Q515 240 525 252 L560 290 L445 290 Z" fill="#CFE6F2" opacity=".95"/><circle cx="225" cy="350" r="50" fill="#1A1F24"/><circle cx="225" cy="350" r="24" fill="#B8C2C8"/><circle cx="605" cy="350" r="50" fill="#1A1F24"/><circle cx="605" cy="350" r="24" fill="#B8C2C8"/><rect x="690" y="305" width="22" height="14" rx="4" fill="#FFF3B0"/></svg>