<svg xmlns="http://www.w3.org/2000/svg" viewBox="0 0 800 500"><defs><linearGradient id="g" x1="0" y1="0" x2="0" y2="1"><stop offset="0" stop-color="#E8EEF2"/><stop offset="1" stop-color="#C9D3D9"/></linearGradient></defs><rect width="800" height="500" fill="url(#g)"/><rect y="390" width="800" height="110" fill="#8E9AA1"/><ellipse cx="415" cy="392" rx="320" ry="14" fill="#000" opacity=".18"/><path d="M110 340 L115 314 Q125 298 190 291 L330 236 Q370 216 420 216 L480 216 Q520 218 545 244 L575 284 Q690 289 705 314 L710 340 Z" fill="#F2A900"/><path d="M345 246 L400 232 L470 232 Q495 234 510 254 L530 284 L310 284 Z" fill="#CFE6F2" opacity=".95"/><circle cx="225" cy="350" r="50" fill="#1A1F24"/><circle cx="225" cy="350" r="24" fill="#B8C2C8"/><circle cx="605" cy="350" r="50" fill="#1A1F24"/><circle cx="605" cy="350" r="24" fill="#B8C2C8"/><rect x="690" y="305" width="22" height="14" rx="4" fill="#FFF3B0"/></svg>